<?xml version="1.0" encoding="utf-8"?>
<svg viewBox="59.777 111.18 59.75 59.75" xmlns="http://www.w3.org/2000/svg">
  <circle style="fill: rgb(16, 16, 16);" cx="89.652" cy="141.055" r="29.875"/>
  <path d="M 52.687 154.804 C 54.913 154.804 56.027 156.114 56.027 158.734 C 56.027 160.721 55.367 163.384 54.047 166.724 C 55.867 165.751 57.297 164.621 58.337 163.334 C 59.303 162.141 60.083 160.721 60.677 159.074 C 60.11 158.794 59.637 158.431 59.257 157.984 C 58.877 157.544 58.687 157.067 58.687 156.554 C 58.687 156.041 58.84 155.621 59.147 155.294 C 59.46 154.967 59.853 154.804 60.327 154.804 C 60.8 154.804 61.173 154.974 61.447 155.314 C 61.713 155.654 61.847 156.127 61.847 156.734 C 61.847 157.334 61.73 158.037 61.497 158.844 C 61.95 159.077 62.423 159.247 62.917 159.354 L 62.757 159.794 C 62.037 159.607 61.567 159.471 61.347 159.384 C 60.733 161.251 59.68 162.944 58.187 164.464 C 56.7 165.984 54.797 167.261 52.477 168.294 L 51.717 168.294 C 52.11 167.514 52.533 166.381 52.987 164.894 C 53.86 162.041 54.297 159.814 54.297 158.214 C 54.297 156.314 53.723 155.364 52.577 155.364 C 52.063 155.364 51.6 155.494 51.187 155.754 C 50.773 156.014 50.44 156.344 50.187 156.744 C 49.933 157.137 49.72 157.594 49.547 158.114 C 49.24 159.041 49.087 160.001 49.087 160.994 C 49.087 161.847 49.18 162.584 49.367 163.204 C 49.7 164.324 50.2 165.107 50.867 165.554 L 50.427 165.914 C 49.767 165.361 49.283 164.631 48.977 163.724 C 48.67 162.811 48.517 161.974 48.517 161.214 C 48.517 160.454 48.563 159.801 48.657 159.254 C 48.75 158.714 48.903 158.174 49.117 157.634 C 49.33 157.094 49.593 156.617 49.907 156.204 C 50.22 155.791 50.617 155.454 51.097 155.194 C 51.577 154.934 52.107 154.804 52.687 154.804 Z M 60.547 155.704 C 60.32 155.704 60.127 155.787 59.967 155.954 C 59.8 156.127 59.717 156.364 59.717 156.664 C 59.717 156.957 59.827 157.271 60.047 157.604 C 60.26 157.937 60.537 158.231 60.877 158.484 C 61.077 157.737 61.177 157.171 61.177 156.784 C 61.177 156.064 60.967 155.704 60.547 155.704 Z" transform="matrix(3.134458065032959, 0, -0.021703002974390984, 2.087678909301758, -80.31513977050781, -194.94920349121094)" style="fill: rgb(244, 241, 241); line-height: 31.4225px; stroke: rgb(254, 254, 254); white-space: pre;"/>
</svg>