<?xml version="1.0" encoding="utf-8"?>
<svg viewBox="36.695 130.14 59.75 59.75" xmlns="http://www.w3.org/2000/svg">
  <circle style="fill: rgb(16, 16, 16);" cx="66.57" cy="160.015" r="29.875"/>
  <path d="M 52.405 153.014 C 54.925 153.014 56.185 154.497 56.185 157.464 C 56.185 159.717 55.438 162.734 53.945 166.514 C 56.005 165.414 57.625 164.137 58.805 162.684 C 59.898 161.324 60.781 159.714 61.455 157.854 C 60.808 157.541 60.268 157.131 59.835 156.624 C 59.408 156.117 59.195 155.574 59.195 154.994 C 59.195 154.421 59.371 153.947 59.725 153.574 C 60.078 153.201 60.521 153.014 61.055 153.014 C 61.595 153.014 62.015 153.207 62.315 153.594 C 62.621 153.981 62.775 154.517 62.775 155.204 C 62.775 155.884 62.645 156.681 62.385 157.594 C 62.891 157.854 63.428 158.044 63.995 158.164 L 63.805 158.664 C 62.991 158.457 62.461 158.304 62.215 158.204 C 61.515 160.317 60.321 162.234 58.635 163.954 C 56.955 165.674 54.798 167.121 52.165 168.294 L 51.305 168.294 C 51.751 167.414 52.231 166.131 52.745 164.444 C 53.731 161.211 54.225 158.691 54.225 156.884 C 54.225 154.731 53.575 153.654 52.275 153.654 C 51.695 153.654 51.171 153.801 50.705 154.094 C 50.238 154.387 49.861 154.761 49.575 155.214 C 49.281 155.661 49.041 156.177 48.855 156.764 C 48.501 157.811 48.325 158.901 48.325 160.034 C 48.325 160.994 48.431 161.827 48.645 162.534 C 49.025 163.801 49.591 164.687 50.345 165.194 L 49.845 165.604 C 49.098 164.977 48.551 164.147 48.205 163.114 C 47.851 162.081 47.675 161.134 47.675 160.274 C 47.675 159.414 47.728 158.677 47.835 158.064 C 47.941 157.444 48.118 156.831 48.365 156.224 C 48.605 155.611 48.901 155.071 49.255 154.604 C 49.608 154.131 50.058 153.747 50.605 153.454 C 51.145 153.161 51.745 153.014 52.405 153.014 Z M 61.305 154.034 C 61.051 154.034 60.831 154.131 60.645 154.324 C 60.458 154.517 60.365 154.784 60.365 155.124 C 60.365 155.457 60.488 155.814 60.735 156.194 C 60.981 156.567 61.295 156.897 61.675 157.184 C 61.908 156.344 62.025 155.704 62.025 155.264 C 62.025 154.444 61.785 154.034 61.305 154.034 Z" transform="matrix(3.134458065032959, 0, -0.021703002974390984, 2.087678909301758, -105.07572174072266, -176.68458557128906)" style="fill: rgb(244, 241, 241); stroke: rgb(254, 254, 254); white-space: pre;"/>
</svg>